<svg width="17" height="16" viewBox="0 0 17 16" fill="none" xmlns="http://www.w3.org/2000/svg">
<g clip-path="url(#clip0_8_3029)">
<path d="M8.86654 15.3337C12.9099 15.3337 16.1999 12.044 16.1999 8.00033C16.1999 7.30238 16.1024 6.61458 15.9095 5.95588C15.8145 5.63197 15.4763 5.44592 15.1515 5.54096C14.8273 5.6357 14.6418 5.97512 14.7365 6.29903C14.8963 6.84629 14.9776 7.4189 14.9776 8.00033C14.9776 11.3699 12.2362 14.1114 8.86654 14.1114C5.49692 14.1114 2.75543 11.3699 2.75543 8.00033C2.75543 4.63071 5.49692 1.88921 8.86654 1.88921C10.0911 1.88921 11.2694 2.24729 12.2737 2.92449C12.5533 3.11323 12.9335 3.03908 13.1219 2.75948C13.3105 2.47959 13.237 2.09973 12.9571 1.91115C11.7501 1.09728 10.3357 0.666992 8.86654 0.666992C4.82315 0.666992 1.5332 3.95664 1.5332 8.00033C1.5332 12.044 4.82315 15.3337 8.86654 15.3337Z" fill="#6CB7B0"/>
<path d="M15.7284 1.52885L8.86641 8.3905L6.6711 6.19552C6.41069 5.93526 5.98881 5.93526 5.72839 6.19552C5.46814 6.45593 5.46814 6.87781 5.72839 7.13822L8.39506 9.80489C8.52543 9.93526 8.69568 10.0002 8.86641 10.0002C9.03715 10.0002 9.2074 9.93526 9.33777 9.80489L16.6711 2.47156C16.9314 2.21114 16.9314 1.78927 16.6711 1.52885C16.4107 1.2686 15.9888 1.2686 15.7284 1.52885Z" fill="#6CB7B0"/>
</g>
<defs>
<clipPath id="clip0_8_3029">
<rect width="16" height="16" fill="white" transform="translate(0.866211)"/>
</clipPath>
</defs>
</svg>
