<svg width="26" height="22" viewBox="0 0 26 22" fill="none" xmlns="http://www.w3.org/2000/svg">
<path d="M19.6667 17.25H19.68M20.2 13.5H21C22.2425 13.5 22.8637 13.5 23.3539 13.6902C24.0072 13.944 24.5264 14.4308 24.7971 15.0433C25 15.5028 25 16.0851 25 17.25C25 18.4149 25 18.9973 24.7971 19.4568C24.5264 20.0693 24.0072 20.556 23.3539 20.8097C22.8637 21 22.2425 21 21 21H5C3.75749 21 3.13624 21 2.64617 20.8097C1.99277 20.556 1.47364 20.0693 1.20299 19.4568C1 18.9973 1 18.4149 1 17.25C1 16.0851 1 15.5028 1.20299 15.0433C1.47364 14.4308 1.99277 13.944 2.64617 13.6902C3.13624 13.5 3.75749 13.5 5 13.5H5.8M13 14.75V1M13 14.75L9 11M13 14.75L17 11" stroke="#6CB7B0" stroke-width="1.67" stroke-linecap="round" stroke-linejoin="round"/>
</svg>
