<svg width="24" height="38" viewBox="0 0 24 38" fill="none" xmlns="http://www.w3.org/2000/svg">
<path fill-rule="evenodd" clip-rule="evenodd" d="M6.16732 3.86947C4.78661 3.86947 3.66732 4.98875 3.66732 6.36947V31.6299C3.66732 33.0106 4.78661 34.1299 6.16732 34.1299H17.834C19.2147 34.1299 20.334 33.0106 20.334 31.6299V6.36947C20.334 4.98875 19.2147 3.86947 17.834 3.86947H17.695L17.2891 4.84355C17.0303 5.46458 16.4234 5.86909 15.7507 5.86909H8.25065C7.57786 5.86909 6.97104 5.46458 6.71223 4.84355L6.30629 3.86947H6.16732ZM0.333984 6.36947C0.333984 3.1478 2.94566 0.536133 6.16732 0.536133H17.834C21.0556 0.536133 23.6673 3.1478 23.6673 6.36947V31.6299C23.6673 34.8515 21.0556 37.4632 17.834 37.4632H6.16732C2.94566 37.4632 0.333984 34.8515 0.333984 31.6299V6.36947Z" fill="#6CB7B0"/>
</svg>
